<svg width="221" height="64" viewBox="0 0 221 64" fill="none" xmlns="http://www.w3.org/2000/svg">
<path d="M16.5968 48.8437C13.3142 48.8437 10.1054 47.8833 7.3761 46.0841C4.64678 44.2849 2.51953 41.7275 1.26336 38.7355C0.00719108 35.7435 -0.32148 32.4511 0.31891 29.2748C0.959299 26.0985 2.53999 23.1808 4.86108 20.8908C7.18218 18.6008 10.1394 17.0413 13.3589 16.4095C16.5784 15.7777 19.9154 16.1019 22.9481 17.3413C25.9807 18.5806 28.5728 20.6794 30.3965 23.3721C32.2201 26.0649 33.1935 29.2307 33.1935 32.4693C33.1882 36.8104 31.4379 40.9722 28.3265 44.0419C25.2152 47.1116 20.9969 48.8384 16.5968 48.8437ZM16.5968 23.1239C14.7233 23.1239 12.892 23.672 11.3342 24.6989C9.77653 25.7257 8.56244 27.1853 7.84551 28.8929C7.12857 30.6006 6.94099 32.4796 7.30648 34.2925C7.67197 36.1053 8.57412 37.7705 9.89884 39.0775C11.2236 40.3844 12.9114 41.2745 14.7488 41.6351C16.5863 41.9957 18.4908 41.8106 20.2217 41.1033C21.9525 40.396 23.4319 39.1981 24.4727 37.6613C25.5135 36.1245 26.0691 34.3176 26.0691 32.4693C26.0637 29.9923 25.064 27.6184 23.2888 25.8669C21.5135 24.1154 19.1073 23.1291 16.5968 23.1239Z" fill="white"/>
<path d="M16.3134 64C13.7782 64.0648 11.2613 63.5591 8.95372 62.5211C6.64615 61.4831 4.60855 59.9402 2.99553 58.0094C2.68492 57.6461 2.45222 57.2244 2.3115 56.7699C2.17078 56.3154 2.12497 55.8374 2.17683 55.3649C2.2287 54.8924 2.37716 54.4352 2.61324 54.0209C2.84932 53.6066 3.16812 53.2439 3.55035 52.9546C3.93258 52.6653 4.3703 52.4556 4.83705 52.338C5.3038 52.2204 5.78987 52.1975 6.26586 52.2705C6.74186 52.3436 7.1979 52.5111 7.60639 52.763C8.01489 53.0149 8.36735 53.3459 8.64247 53.736C10.0015 55.1494 11.7314 56.1628 13.6397 56.6634C15.5479 57.1641 17.5596 57.1323 19.4506 56.5716C21.0804 56.2581 22.5777 55.4707 23.75 54.3105C24.9223 53.1504 25.7159 51.6707 26.0286 50.0618C26.1298 39.3385 26.0286 19.7891 26.0286 19.5894C26.0179 19.1219 26.1012 18.657 26.2739 18.2215C26.4466 17.786 26.7052 17.3887 27.0346 17.0525C27.3641 16.7163 27.7579 16.448 28.1932 16.2631C28.6285 16.0781 29.0967 15.9802 29.5706 15.975C30.0374 15.9724 30.5002 16.0609 30.9323 16.2353C31.3643 16.4097 31.7572 16.6667 32.0882 16.9915C32.4193 17.3162 32.682 17.7024 32.8613 18.1277C33.0405 18.5529 33.1328 19.009 33.1328 19.4696C33.1328 19.6693 33.234 39.6181 33.1328 50.3214C33.1428 50.4876 33.1428 50.6543 33.1328 50.8206C32.661 53.8411 31.2735 56.6499 29.1529 58.8775C27.0323 61.1052 24.2779 62.6473 21.252 63.3011C19.6426 63.7403 17.983 63.9752 16.3134 64Z" fill="white"/>
<path d="M207.136 17.0134C206.794 16.6959 206.392 16.4484 205.953 16.2853C205.514 16.1222 205.047 16.0469 204.578 16.0636C204.109 16.0803 203.648 16.1888 203.222 16.3827C202.796 16.5766 202.413 16.8521 202.096 17.1932L195.882 23.7829L200.699 28.9947L207.318 21.9657C207.637 21.6293 207.885 21.2341 208.048 20.8028C208.212 20.3714 208.287 19.9124 208.27 19.4522C208.253 18.992 208.144 18.5396 207.95 18.1211C207.755 17.7026 207.478 17.3261 207.136 17.0134Z" fill="white"/>
<path d="M189.264 31.2312C188.991 31.9936 188.991 32.8252 189.264 33.5876L190.377 32.4294L189.264 31.2312Z" fill="white"/>
<path d="M216.628 36.6628C219.043 36.6628 221 34.7316 221 32.3495C221 29.9673 219.043 28.0362 216.628 28.0362C214.214 28.0362 212.256 29.9673 212.256 32.3495C212.256 34.7316 214.214 36.6628 216.628 36.6628Z" fill="#EA0029"/>
<path d="M55.2955 48.7838C52.009 48.7838 48.7963 47.8223 46.0636 46.0208C43.331 44.2194 41.2011 41.659 39.9434 38.6633C38.6857 35.6676 38.3567 32.3712 38.9978 29.191C39.639 26.0108 41.2216 23.0896 43.5455 20.7968C45.8695 18.504 48.8303 16.9426 52.0537 16.31C55.2771 15.6775 58.6182 16.0021 61.6546 17.243C64.691 18.4838 67.2862 20.5851 69.1121 23.2812C70.938 25.9772 71.9125 29.1469 71.9125 32.3894C71.9125 34.5424 71.4827 36.6742 70.6477 38.6633C69.8126 40.6523 68.5886 42.4596 67.0455 43.982C65.5025 45.5044 63.6707 46.712 61.6546 47.5359C59.6385 48.3597 57.4777 48.7838 55.2955 48.7838ZM55.2955 23.044C53.4164 23.0401 51.5783 23.5865 50.0142 24.614C48.45 25.6416 47.2302 27.1041 46.5092 28.8162C45.7883 30.5283 45.5986 32.413 45.9642 34.2316C46.3298 36.0501 47.2343 37.7207 48.5631 39.0317C49.8919 40.3426 51.5851 41.235 53.4284 41.5957C55.2716 41.9565 57.1819 41.7693 58.9173 41.058C60.6527 40.3467 62.135 39.1432 63.1765 37.6C64.218 36.0569 64.7718 34.2434 64.7678 32.3894C64.7625 29.9125 63.7628 27.5385 61.9876 25.787C60.2123 24.0356 57.8061 23.0493 55.2955 23.044Z" fill="white"/>
<path d="M117.27 48.2247C116.309 48.2247 115.388 47.8481 114.708 47.1778C114.029 46.5074 113.647 45.5983 113.647 44.6503V3.59441C113.61 3.1012 113.676 2.6057 113.842 2.13891C114.008 1.67211 114.269 1.24407 114.61 0.881556C114.951 0.519046 115.364 0.229869 115.824 0.0321184C116.283 -0.165632 116.779 -0.2677 117.28 -0.2677C117.782 -0.2677 118.278 -0.165632 118.737 0.0321184C119.197 0.229869 119.61 0.519046 119.951 0.881556C120.292 1.24407 120.553 1.67211 120.719 2.13891C120.885 2.6057 120.951 3.1012 120.913 3.59441V44.6503C120.913 45.1213 120.819 45.5878 120.636 46.0228C120.452 46.4577 120.184 46.8527 119.845 47.1848C119.507 47.517 119.105 47.7799 118.663 47.9583C118.221 48.1368 117.748 48.2273 117.27 48.2247Z" fill="white"/>
<path d="M141.255 48.8637H140.344C132.248 48.5242 126.054 43.2125 125.548 35.9239C125.538 35.831 125.538 35.7372 125.548 35.6443C125.548 30.073 125.548 19.6693 125.548 19.6693C125.548 18.7372 125.924 17.8432 126.592 17.1841C127.26 16.525 128.166 16.1548 129.111 16.1548C130.055 16.1548 130.961 16.525 131.63 17.1841C132.298 17.8432 132.673 18.7372 132.673 19.6693C132.673 19.6693 132.673 29.9932 132.673 35.6443C133.057 40.0375 137.207 41.7747 140.668 41.9145C144.817 42.0942 149.31 40.1772 150.16 35.5045C150.16 25.5201 150.16 19.869 150.16 19.8091C150.152 19.3475 150.236 18.889 150.408 18.4596C150.58 18.0301 150.835 17.6383 151.161 17.3064C151.817 16.636 152.717 16.2505 153.662 16.2346C154.606 16.2188 155.519 16.5738 156.198 17.2217C156.878 17.8695 157.269 18.7571 157.285 19.6892C157.285 19.6892 157.285 25.6799 157.285 35.864C157.294 36.0303 157.294 36.1969 157.285 36.3632C156.627 40.0216 154.632 43.3147 151.677 45.6187C148.723 47.9226 145.014 49.0772 141.255 48.8637Z" fill="white"/>
<path d="M80.3526 48.3844C79.8848 48.3844 79.4216 48.2935 78.9894 48.1169C78.5572 47.9403 78.1645 47.6814 77.8338 47.355C77.503 47.0287 77.2406 46.6412 77.0616 46.2148C76.8825 45.7884 76.7904 45.3314 76.7904 44.8699V17.0534C76.7904 16.8936 76.9928 0.579105 94.6016 0.579105H105.248C106.193 0.579105 107.099 0.949383 107.767 1.60848C108.435 2.26758 108.81 3.16151 108.81 4.09361C108.81 5.02572 108.435 5.91965 107.767 6.57875C107.099 7.23785 106.193 7.60812 105.248 7.60812H94.6016C84.2185 7.60812 83.9149 16.0949 83.9149 17.0534V44.8699C83.9176 45.3322 83.8273 45.7904 83.6492 46.218C83.4711 46.6456 83.2088 47.0341 82.8775 47.3609C82.5462 47.6878 82.1524 47.9466 81.719 48.1223C81.2856 48.298 80.8212 48.3871 80.3526 48.3844Z" fill="white"/>
<path d="M105.248 27.6968H80.9598C80.015 27.6968 79.109 27.3265 78.4409 26.6674C77.7729 26.0083 77.3976 25.1143 77.3976 24.1822C77.3976 23.2501 77.7729 22.3562 78.4409 21.6971C79.109 21.038 80.015 20.6677 80.9598 20.6677H105.248C106.193 20.6677 107.099 21.038 107.767 21.6971C108.435 22.3562 108.81 23.2501 108.81 24.1822C108.81 25.1143 108.435 26.0083 107.767 26.6674C107.099 27.3265 106.193 27.6968 105.248 27.6968Z" fill="white"/>
<path d="M165.522 48.6441C164.621 48.6495 163.752 48.3135 163.094 47.7055C162.405 47.0678 162 46.1876 161.965 45.2564C161.931 44.3252 162.271 43.4184 162.911 42.7333L172.627 32.4294L162.891 21.9657C162.575 21.6248 162.33 21.2258 162.17 20.7914C162.01 20.3571 161.938 19.8958 161.959 19.4341C161.979 18.9724 162.092 18.5192 162.29 18.1005C162.488 17.6817 162.768 17.3056 163.114 16.9935C163.459 16.6814 163.864 16.4396 164.304 16.2817C164.744 16.1239 165.212 16.0532 165.68 16.0736C166.148 16.0939 166.607 16.2051 167.032 16.4006C167.456 16.5962 167.837 16.8723 168.154 17.2132L182.321 32.5492L168.154 47.5857C167.813 47.9328 167.404 48.2061 166.951 48.3883C166.498 48.5705 166.011 48.6576 165.522 48.6441Z" fill="#EA0029"/>
<path d="M181.127 48.644C180.226 48.6494 179.357 48.3135 178.699 47.7055C178.01 47.0677 177.605 46.1875 177.57 45.2564C177.536 44.3252 177.876 43.4184 178.516 42.7333L188.232 32.4294L178.496 21.9657C177.857 21.2772 177.522 20.3666 177.564 19.4341C177.605 18.5017 178.021 17.6237 178.719 16.9935C179.417 16.3633 180.34 16.0324 181.285 16.0735C182.23 16.1147 183.12 16.5247 183.759 17.2132L197.926 32.5492L183.759 47.5857C183.418 47.9327 183.009 48.2061 182.556 48.3883C182.103 48.5705 181.616 48.6576 181.127 48.644Z" fill="white"/>
<path d="M189.588 31.5707C189.37 32.1585 189.321 32.7943 189.446 33.4078L190.377 32.4293L189.588 31.5707Z" fill="white"/>
<path d="M207.196 42.3539L200.821 35.7841L195.963 40.9361L202.035 47.2263C202.369 47.5667 202.768 47.8375 203.209 48.0228C203.651 48.208 204.126 48.3038 204.606 48.3046C205.527 48.3096 206.413 47.9583 207.075 47.3261C207.755 46.6803 208.149 45.7957 208.172 44.8646C208.195 43.9336 207.844 43.0313 207.196 42.3539Z" fill="white"/>
</svg>
