<svg width="467" height="399" viewBox="0 0 467 399" fill="none" xmlns="http://www.w3.org/2000/svg">
<path d="M359.809 238.508V238.44C350.213 235.35 335.489 236.399 333.302 237.665C330.977 239.174 328.979 241.11 327.422 243.365C322.253 250.473 318.548 258.482 316.509 266.951L212.139 276.356C208.293 268.308 202.496 261.092 196.674 256.737C195.011 255.387 193.094 254.361 191.03 253.716C190.121 253.61 189.201 253.641 188.301 253.807C184.515 243.171 179.152 232.911 172.449 232.261C158.337 230.893 133.711 235.476 126.996 248.745C120.281 262.015 118.176 295.143 118.176 295.143L113.472 299.703C110.042 293.224 105.27 287.5 99.4545 282.888C97.7967 281.531 95.8783 280.504 93.8097 279.867C92.6337 279.548 87.9297 280.255 83.0023 281.817C82.8023 281.634 82.6142 281.452 82.4025 281.281C77.6985 277.462 68.0553 275.376 62.6692 285.111C57.2832 294.847 63.7512 313.281 66.9734 317.453C68.5383 319.585 70.5007 321.413 72.7593 322.845C76.5578 331.965 83.3433 343.593 93.7862 344.129C97.3631 344.316 100.94 343.755 104.273 342.484C107.607 341.213 110.62 339.263 113.108 336.765C119.882 329.925 120.611 320.315 118.059 310.91L119.153 309.359C119.153 309.359 121.587 312.722 130.913 311.366C133.616 311.096 136.179 310.065 138.286 308.402C142.661 319.22 149.728 330.062 160.959 331.68C165.779 332.395 170.702 332.095 175.391 330.801C180.081 329.506 184.428 327.248 188.137 324.179C190.292 322.375 192.173 320.283 193.723 317.966C200.011 317.63 205.935 314.999 210.304 310.602C214.214 306.56 216.449 301.264 216.584 295.725L230.473 294.152C239.191 297.921 248.703 299.648 258.238 299.19C267.368 298.622 276.011 294.995 282.687 288.93L314.333 286.308C314.862 298.199 319.272 309.108 329.621 315.116C333.583 317.409 338.011 318.841 342.599 319.316C347.187 319.79 351.827 319.294 356.199 317.864C370.793 313.121 374.25 292.1 375.191 279.32C376.649 258.8 369.899 241.415 359.809 238.508Z" fill="#263238" stroke="#263238" stroke-width="0.75" stroke-linecap="round" stroke-linejoin="round"/>
<path d="M166.592 325.08C165.379 326.584 163.831 327.803 162.065 328.648" stroke="white" stroke-width="0.5" stroke-linecap="round" stroke-linejoin="round"/>
<path d="M172.296 298.062C172.296 298.062 173.695 312.882 168.486 322.287" stroke="white" stroke-width="0.5" stroke-linecap="round" stroke-linejoin="round"/>
<path d="M176.424 314.432C175.095 320.132 172.449 325.661 167.321 328.112" stroke="white" stroke-width="0.5" stroke-linecap="round" stroke-linejoin="round"/>
<path d="M182.809 296.933C182.809 296.933 185.161 321.568 172.59 327.519" stroke="white" stroke-width="0.5" stroke-linecap="round" stroke-linejoin="round"/>
<path d="M188.078 296.363C188.078 296.363 190.43 321.01 177.846 326.949" stroke="white" stroke-width="0.5" stroke-linecap="round" stroke-linejoin="round"/>
<path d="M346.732 313.634C345.38 315.289 343.701 316.665 341.793 317.681" stroke="white" stroke-width="0.5" stroke-linecap="round" stroke-linejoin="round"/>
<path d="M356.187 282.866C356.187 282.866 355.434 299.726 348.978 310.454" stroke="white" stroke-width="0.5" stroke-linecap="round" stroke-linejoin="round"/>
<path d="M357.869 301.539C355.752 308.025 352.365 314.318 347.014 317.054" stroke="white" stroke-width="0.5" stroke-linecap="round" stroke-linejoin="round"/>
<path d="M366.63 281.612C366.63 281.612 365.372 309.701 352.236 316.427" stroke="white" stroke-width="0.5" stroke-linecap="round" stroke-linejoin="round"/>
<path d="M371.875 280.996C371.875 280.996 370.616 309.074 357.48 315.812" stroke="white" stroke-width="0.5" stroke-linecap="round" stroke-linejoin="round"/>
<path d="M97.1024 340.322C96.1017 341.808 94.782 343.068 93.2334 344.015" stroke="white" stroke-width="0.5" stroke-linecap="round" stroke-linejoin="round"/>
<path d="M98.9604 316.347C98.9604 316.347 102.277 328.887 98.5371 337.654" stroke="white" stroke-width="0.5" stroke-linecap="round" stroke-linejoin="round"/>
<path d="M105.111 329.811C104.582 334.884 102.759 339.991 98.2078 342.795" stroke="white" stroke-width="0.5" stroke-linecap="round" stroke-linejoin="round"/>
<path d="M108.886 313.908C108.886 313.908 114.413 334.713 103.17 341.564" stroke="white" stroke-width="0.5" stroke-linecap="round" stroke-linejoin="round"/>
<path d="M113.849 312.677C113.849 312.677 119.388 333.482 108.133 340.344" stroke="white" stroke-width="0.5" stroke-linecap="round" stroke-linejoin="round"/>
<path d="M154.385 289.614C157.184 305.13 155.432 318.399 150.493 319.254C145.554 320.109 139.262 308.185 136.463 292.67C133.664 277.154 135.416 263.885 140.367 263.03C145.318 262.175 151.586 274.088 154.385 289.614Z" fill="#EA0029" stroke="#263238" stroke-linecap="round" stroke-linejoin="round"/>
<path d="M151.892 289.945C152.668 295.896 151.951 300.878 150.269 301.083C148.588 301.288 146.612 296.637 145.836 290.686C145.06 284.735 145.836 279.742 147.459 279.537C149.082 279.332 151.116 283.994 151.892 289.945Z" fill="#EA0029" stroke="#263238" stroke-linecap="round" stroke-linejoin="round"/>
<path d="M140.097 275.718C140.264 273.72 140.59 271.738 141.073 269.79" stroke="#263238" stroke-width="0.75" stroke-linecap="round" stroke-linejoin="round"/>
<path d="M147.894 313.657C144.64 307.34 142.312 300.614 140.979 293.673C140.093 288.763 139.735 283.777 139.909 278.796" stroke="#263238" stroke-width="0.75" stroke-linecap="round" stroke-linejoin="round"/>
<path d="M85.1755 335.725C88.7306 334.77 89.0266 324.951 85.8367 313.793C82.6468 302.635 77.1789 294.364 73.6238 295.319C70.0687 296.274 69.7727 306.093 72.9626 317.251C76.1525 328.409 81.6204 336.68 85.1755 335.725Z" fill="#EA0029" stroke="#263238" stroke-linecap="round" stroke-linejoin="round"/>
<path d="M84.6721 314.238C85.7893 318.479 85.7305 322.15 84.531 322.446C83.3315 322.743 81.4734 319.539 80.3562 315.31C79.239 311.081 79.2978 307.387 80.4973 307.102C81.6969 306.817 83.5549 309.998 84.6721 314.238Z" stroke="#263238" stroke-width="0.75" stroke-linecap="round" stroke-linejoin="round"/>
<path d="M74.8172 304.97C74.7516 303.509 74.8027 302.046 74.9701 300.593" stroke="#263238" stroke-width="0.75" stroke-linecap="round" stroke-linejoin="round"/>
<path d="M83.9782 331.749C81.0375 327.46 78.7298 322.794 77.1221 317.886C76.0232 314.411 75.298 310.836 74.9583 307.216" stroke="#263238" stroke-width="0.75" stroke-linecap="round" stroke-linejoin="round"/>
<path d="M337.265 123.368C324.87 98.5731 319.519 96.4185 311.276 96.0081C303.032 95.5977 283.569 93.2493 261.884 96.6123C261.884 96.6123 201.39 95.5863 154.585 123.072C105.723 151.766 81.9438 176.971 78.6158 190.035C75.2877 203.1 63.9275 237.14 58.5414 256.657C53.1554 276.174 49.4862 293.365 56.3541 309.165C60.5054 318.719 64.9271 321.591 70.6072 321.546C69.7382 320.034 68.9721 318.469 68.314 316.86C62.6692 303.306 63.3513 283.914 69.7958 282.66C76.2402 281.406 80.0858 294.391 83.9783 308.55C84.751 311.671 85.7975 314.722 87.1065 317.67C96.7379 314.147 112.167 306.27 132.676 298.085C130.729 285.649 130.686 273.003 132.547 260.556C135.581 241.096 148.411 236.798 153.997 248.643C158.619 258.401 160.336 280.244 160.795 287.608C169.027 284.861 175.918 283.048 180.163 282.797C180.163 282.797 250.347 267.43 302.079 266.199C353.811 264.968 379.695 263.771 379.695 263.771C379.695 263.771 349.66 148.118 337.265 123.368Z" fill="white"/>
<path d="M171.872 243C171.872 243 164.758 252.439 156.102 254.457C159.16 265.332 160.418 281.429 160.806 287.517C168.156 285.066 174.401 283.344 178.681 282.843C179.305 279.286 179.681 277.017 179.681 277.017L171.872 243Z" fill="#EA0029"/>
<path opacity="0.2" d="M84.284 309.576C87.5533 309.895 89.7289 311.263 96.3733 309.656C108.133 306.817 99.6779 284.815 119.188 275.832C122.975 273.98 127.096 272.858 131.324 272.526C131.499 268.5 131.892 264.485 132.5 260.499C133.018 256.583 134.211 252.78 136.028 249.247C130.701 247.662 129.736 246.146 120.658 250.33C101.136 259.313 104.064 282.489 92.3631 285.328C83.0257 287.608 82.5083 283.971 75.417 285.659C78.7333 290.219 81.297 299.099 83.8842 308.459C84.0841 308.88 84.1782 309.188 84.284 309.576Z" fill="#EA0029"/>
<g style="mix-blend-mode:multiply">
<g style="mix-blend-mode:multiply" opacity="0.2">
<path d="M65.0799 290.093C59.6115 293.741 56.3539 299.213 54.4958 303.83C54.9999 305.652 55.6204 307.441 56.3539 309.188C60.5052 318.741 64.927 321.614 70.6071 321.569C69.738 320.057 68.972 318.492 68.3139 316.883C64.7271 308.253 63.7627 297.275 65.0799 290.093Z" fill="#EA0029"/>
</g>
</g>
<g style="mix-blend-mode:multiply" opacity="0.2">
<path d="M311.276 96.0082L309.147 95.8828C223.381 117.155 188.489 217.361 176.482 265.652C177.129 270.451 177.835 275.159 178.599 279.742C180.057 279.468 179.046 282.797 180.163 282.74C180.163 282.74 250.347 267.373 302.079 266.142C353.811 264.911 379.695 263.714 379.695 263.714C379.695 263.714 349.66 148.118 337.265 123.368C324.87 98.6188 319.519 96.373 311.276 96.0082Z" fill="#EA0029"/>
</g>
<path d="M337.265 123.368C324.87 98.5731 319.519 96.4185 311.276 96.0081C303.032 95.5977 283.569 93.2493 261.884 96.6123C261.884 96.6123 201.39 95.5863 154.585 123.072C105.723 151.766 81.9438 176.971 78.6158 190.035C75.2877 203.1 63.9275 237.14 58.5414 256.657C53.1554 276.174 49.4862 293.365 56.3541 309.165C60.5054 318.719 64.9271 321.591 70.6072 321.546C69.7382 320.034 68.9721 318.469 68.314 316.86C62.6692 303.306 63.3513 283.914 69.7958 282.66C76.2402 281.406 80.0858 294.391 83.9783 308.55C84.751 311.671 85.7975 314.722 87.1065 317.67C96.7379 314.147 112.167 306.27 132.676 298.085C130.729 285.649 130.686 273.003 132.547 260.556C135.581 241.096 148.411 236.798 153.997 248.643C158.619 258.401 160.336 280.244 160.795 287.608C169.027 284.861 175.918 283.048 180.163 282.797C180.163 282.797 250.347 267.43 302.079 266.199C353.811 264.968 379.695 263.771 379.695 263.771C379.695 263.771 349.66 148.118 337.265 123.368Z" stroke="#263238" stroke-linecap="round" stroke-linejoin="round"/>
<path opacity="0.2" d="M80.5442 248.495C81.3515 249.146 82.3341 249.559 83.376 249.686C84.4178 249.814 85.4755 249.649 86.4242 249.213C90.1286 247.776 90.5049 242.373 90.5049 242.373L96.0556 242.019L97.1728 225.136L84.9424 229.799C84.9424 229.799 81.6614 246.34 80.5442 248.495Z" fill="#EA0029"/>
<path d="M64.5036 297.868C60.9919 299.677 57.6715 301.815 54.5898 304.252C55.0774 305.922 55.6665 307.563 56.3538 309.165C60.5051 318.719 64.9269 321.591 70.607 321.546C69.738 320.034 68.9719 318.469 68.3138 316.86C65.903 310.796 64.6132 304.367 64.5036 297.868V297.868Z" fill="#263238" stroke="#263238" stroke-width="0.75" stroke-linecap="round" stroke-linejoin="round"/>
<path d="M83.2372 288.452C82.919 288.45 82.607 288.366 82.3339 288.207C82.0608 288.049 81.8367 287.822 81.6849 287.551C81.4709 287.157 81.4248 286.697 81.5568 286.271C81.6888 285.845 81.9881 285.486 82.3905 285.271C82.6728 285.123 105.558 271.374 124.515 261.605C124.719 261.499 124.944 261.434 125.174 261.412C125.405 261.39 125.638 261.413 125.859 261.479C126.081 261.544 126.287 261.652 126.466 261.794C126.645 261.937 126.793 262.113 126.902 262.311C127.011 262.51 127.078 262.727 127.101 262.951C127.123 263.174 127.1 263.4 127.032 263.615C126.964 263.83 126.854 264.03 126.706 264.203C126.559 264.376 126.378 264.52 126.173 264.626C107.228 274.384 84.3544 288.121 84.0722 288.269C83.8148 288.399 83.5271 288.462 83.2372 288.452V288.452Z" fill="#263238" stroke="#263238" stroke-miterlimit="10"/>
<path d="M113.155 174.178L112.343 193.752C112.167 196.419 113.766 197.707 115.871 196.556L148.388 176.036C149.583 175.228 150.547 174.139 151.189 172.871C151.831 171.602 152.129 170.197 152.057 168.786L151.857 146.955C151.622 144.971 150.234 144.162 148.529 145.017C142.414 148.083 130.607 158.457 116.495 168.113C115.538 168.848 114.748 169.765 114.174 170.809C113.599 171.852 113.252 172.999 113.155 174.178V174.178Z" fill="#EA0029" stroke="#263238" stroke-linecap="round" stroke-linejoin="round"/>
<path d="M135.123 168.66L151.01 172.422" stroke="#263238" stroke-linecap="round" stroke-linejoin="round"/>
<path d="M113.39 196.647L123.198 175.648" stroke="#263238" stroke-linecap="round" stroke-linejoin="round"/>
<path d="M113.343 173.528L127.761 175.272C129.254 175.489 131.112 174.292 132.465 172.217L151.281 146.1" stroke="#263238" stroke-linecap="round" stroke-linejoin="round"/>
<path d="M193.84 137.812L197.18 186.832C197.266 188.247 197.649 189.63 198.306 190.897C198.962 192.163 199.878 193.287 200.997 194.199C202.116 195.111 203.416 195.793 204.816 196.202C206.216 196.611 207.687 196.739 209.14 196.579L321.471 182.443C323.019 182.27 324.509 181.774 325.84 180.988C327.17 180.202 328.308 179.145 329.176 177.891C330.044 176.637 330.62 175.215 330.866 173.723C331.111 172.232 331.019 170.707 330.597 169.253L316.414 120.644C315.743 118.334 314.269 116.319 312.242 114.942C310.215 113.565 307.758 112.909 305.29 113.085C287.085 114.385 243.42 118.181 202.201 127.085C199.726 127.63 197.53 129.005 196 130.968C194.47 132.931 193.705 135.355 193.84 137.812V137.812Z" fill="#EA0029" stroke="#263238" stroke-linecap="round" stroke-linejoin="round"/>
<path d="M277.336 153.008L328.622 176.561" stroke="#263238" stroke-linecap="round" stroke-linejoin="round"/>
<path d="M201.437 194.424L244.749 156.85" stroke="#263238" stroke-linecap="round" stroke-linejoin="round"/>
<path d="M194.217 136.524L256.368 161.296C258.702 162.22 261.262 162.467 263.738 162.008C266.214 161.548 268.499 160.402 270.316 158.708L314.615 118.158" stroke="#263238" stroke-linecap="round" stroke-linejoin="round"/>
<path d="M318.339 189.381C328.897 189.129 337.248 180.772 336.993 170.714C336.738 160.656 327.972 152.706 317.415 152.958C306.857 153.21 298.506 161.568 298.761 171.626C299.016 181.684 307.782 189.633 318.339 189.381Z" fill="#263238" stroke="#263238" stroke-width="0.75" stroke-linecap="round" stroke-linejoin="round"/>
<path d="M315.815 179.867H315.756C315.385 179.867 315.019 179.783 314.688 179.621C314.357 179.458 314.07 179.222 313.851 178.932L306.336 168.877C305.97 168.387 305.819 167.776 305.917 167.179C306.015 166.581 306.354 166.046 306.86 165.691C307.365 165.335 307.995 165.189 308.611 165.284C309.228 165.38 309.78 165.708 310.147 166.198L315.756 173.699L329.162 155.744C329.529 155.254 330.081 154.926 330.698 154.831C331.314 154.735 331.944 154.882 332.449 155.237C332.955 155.592 333.294 156.127 333.392 156.725C333.49 157.323 333.339 157.933 332.973 158.423L317.685 178.943C317.468 179.227 317.186 179.458 316.862 179.618C316.537 179.778 316.179 179.863 315.815 179.867Z" fill="white" stroke="#263238" stroke-linecap="round" stroke-linejoin="round"/>
<path d="M244.784 229.001C244.784 229.001 284.768 221.568 312.169 222.092L313.816 228.476C313.816 228.476 256.286 231.121 245.325 236.456L244.784 229.001Z" fill="#263238" stroke="#263238" stroke-width="0.75" stroke-linecap="round" stroke-linejoin="round"/>
<path d="M245.325 236.433L246.501 242.817C246.623 243.529 247.027 244.166 247.627 244.592C248.227 245.018 248.976 245.199 249.712 245.097C259.743 243.707 294.953 239.021 313.216 239.454C313.666 239.468 314.112 239.378 314.52 239.192C314.927 239.006 315.283 238.73 315.56 238.386C315.836 238.041 316.024 237.638 316.109 237.21C316.195 236.782 316.174 236.34 316.05 235.92L313.863 228.499" stroke="#263238" stroke-linecap="round" stroke-linejoin="round"/>
<path d="M99.4191 225.159L99.1957 198.825L100.548 171.75C100.558 171.491 100.487 171.235 100.345 171.015C100.203 170.796 99.9956 170.623 99.7505 170.52C99.5053 170.416 99.2337 170.387 98.9711 170.436C98.7084 170.484 98.467 170.609 98.2784 170.792C93.2216 175.808 84.5662 183.401 82.0025 189.625C78.6745 197.685 74.7349 237.357 74.7349 237.357L99.4191 225.159Z" fill="#263238" stroke="#263238" stroke-width="0.75" stroke-linecap="round" stroke-linejoin="round"/>
<path d="M68.1022 219.869H64.1626C62.1557 219.869 60.5288 221.446 60.5288 223.392V243.068C60.5288 245.014 62.1557 246.591 64.1626 246.591H68.1022C70.1091 246.591 71.7361 245.014 71.7361 243.068V223.392C71.7361 221.446 70.1091 219.869 68.1022 219.869Z" fill="#263238" stroke="#263238" stroke-width="0.75" stroke-linecap="round" stroke-linejoin="round"/>
<path d="M70.5835 201.492C72.4484 201.839 74.2698 202.378 76.0166 203.1C77.4651 203.791 78.7814 204.716 79.9092 205.836L85.7892 198.3C85.7892 198.3 77.1691 194.801 75.5345 192.669L73.9116 190.526L70.5835 201.492Z" fill="white"/>
<g style="mix-blend-mode:multiply" opacity="0.5">
<path d="M75.5227 192.669L74.0057 190.628L73.8292 190.742L70.5835 201.458C70.5835 201.458 71.2068 201.572 72.0888 201.777L80.4972 195.872C78.6595 195.093 76.9761 194.009 75.5227 192.669V192.669Z" fill="#EA0029"/>
</g>
<path d="M70.5835 201.492C72.4484 201.839 74.2698 202.378 76.0166 203.1C77.4651 203.791 78.7814 204.716 79.9092 205.836L85.7892 198.3C85.7892 198.3 77.1691 194.801 75.5345 192.669L73.9116 190.526L70.5835 201.492Z" stroke="#263238" stroke-width="0.75" stroke-linecap="round" stroke-linejoin="round"/>
<path d="M83.0022 195.097L75.8169 203.978L76.793 206.999L87.7415 195.975L83.0022 195.097Z" fill="#EA0029" stroke="#263238" stroke-linecap="round" stroke-linejoin="round"/>
<path d="M71.501 170.006C66.6441 166.358 53.9903 168.683 51.509 177.324C49.9802 182.648 50.8269 190.628 50.8269 190.628L65.2446 187.664L66.4206 189.386C68.7726 192.806 73.8647 190.526 75.1818 189.386C75.8992 188.781 75.8522 187.003 75.664 185.532L76.2402 185.407C76.2402 185.407 76.3461 173.665 71.501 170.006Z" fill="#263238" stroke="#263238" stroke-width="0.75" stroke-linecap="round" stroke-linejoin="round"/>
<path d="M66.1148 186.615C59.7866 185.932 53.381 186.522 47.2988 188.348C37.8908 191.403 36.4443 194.048 43.1828 193.889C49.9213 193.729 66.1148 186.615 66.1148 186.615Z" fill="#263238" stroke="#263238" stroke-width="0.75" stroke-linecap="round" stroke-linejoin="round"/>
<path d="M54.496 183.298C55.5936 183.298 56.4834 182.119 56.4834 180.665C56.4834 179.21 55.5936 178.031 54.496 178.031C53.3984 178.031 52.5085 179.21 52.5085 180.665C52.5085 182.119 53.3984 183.298 54.496 183.298Z" fill="#EA0029"/>
<path d="M99.1957 198.825C99.1957 198.825 86.3184 195.655 82.3553 198.574C78.3922 201.492 77.3809 206.315 78.6509 212.163C79.921 218.011 83.0139 233.39 83.0139 233.39L99.4191 225.159L99.1957 198.825Z" fill="#263238" stroke="#263238" stroke-width="0.75" stroke-linecap="round" stroke-linejoin="round"/>
<path d="M78.7568 230.939C78.7568 230.939 78.0629 236.844 77.2515 237.676C76.4401 238.508 55.0369 221.078 53.7315 219.436C52.4261 217.794 53.3199 211.935 53.7315 210.099C54.1431 208.264 53.4493 207.261 51.3795 208.526C49.3097 209.792 49.8625 215.058 49.8625 215.058C49.8625 215.058 43.5473 213.588 42.289 213.417C41.0307 213.246 39.937 214.762 40.1252 215.97C40.3133 217.179 41.9715 217.281 41.9715 217.281C41.5473 219.031 41.6659 220.863 42.3125 222.548C43.418 224.76 44.6645 226.151 47.0165 226.698C49.4432 227.065 51.9001 227.21 54.3548 227.131C54.3548 227.131 65.2916 237.231 68.4668 241.005C71.642 244.778 78.3334 249.908 81.6615 248.985C84.9896 248.061 88.1648 231.953 88.1648 231.953L78.7568 230.939Z" fill="white"/>
<g style="mix-blend-mode:multiply" opacity="0.5">
<path d="M77.2514 237.676L83.5077 239.694C83.7062 240.966 83.4288 242.265 82.7258 243.356C82.0227 244.447 80.9403 245.259 79.674 245.645C76.9104 246.534 71.9477 243.49 68.4197 240.925L68.5255 241.05C71.7595 244.835 78.3921 249.954 81.7202 249.03C85.0483 248.107 88.2235 231.999 88.2235 231.999L78.7567 230.859C78.7567 230.859 78.0629 236.844 77.2514 237.676Z" fill="#EA0029"/>
</g>
<path d="M78.7568 230.939C78.7568 230.939 78.0629 236.844 77.2515 237.676C76.4401 238.508 55.0369 221.078 53.7315 219.436C52.4261 217.794 53.3199 211.935 53.7315 210.099C54.1431 208.264 53.4493 207.261 51.3795 208.526C49.3097 209.792 49.8625 215.058 49.8625 215.058C49.8625 215.058 43.5473 213.588 42.289 213.417C41.0307 213.246 39.937 214.762 40.1252 215.97C40.3133 217.179 41.9715 217.281 41.9715 217.281C41.5473 219.031 41.6659 220.863 42.3125 222.548C43.418 224.76 44.6645 226.151 47.0165 226.698C49.4432 227.065 51.9001 227.21 54.3548 227.131C54.3548 227.131 65.2916 237.231 68.4668 241.005C71.642 244.778 78.3334 249.908 81.6615 248.985C84.9896 248.061 88.1648 231.953 88.1648 231.953L78.7568 230.939Z" stroke="#263238" stroke-width="0.75" stroke-linecap="round" stroke-linejoin="round"/>
<path d="M57.3653 222.639L54.3547 227.177L55.8953 228.191L58.9764 223.916L57.3653 222.639Z" fill="#263238" stroke="#263238" stroke-miterlimit="10"/>
<path d="M56.3306 226.914C56.98 226.914 57.5066 226.404 57.5066 225.774C57.5066 225.145 56.98 224.634 56.3306 224.634C55.6811 224.634 55.1545 225.145 55.1545 225.774C55.1545 226.404 55.6811 226.914 56.3306 226.914Z" fill="white" stroke="#263238" stroke-width="0.75" stroke-linecap="round" stroke-linejoin="round"/>
<path d="M53.4492 192.087C53.4492 192.087 54.1666 193.809 55.3661 196.83C56.5656 199.851 63.0101 206.223 66.1618 206.588C69.3134 206.953 73.0884 195.849 73.6882 193.558C73.8881 192.805 74.088 191.597 74.088 191.597C74.088 191.597 78.0511 189.784 77.1338 187.596C76.2166 185.407 74.3585 184.404 73.4765 185.076C72.5945 185.749 72.4416 188.587 71.1245 188.61C69.8074 188.633 69.09 188.234 67.9258 186.729C66.7615 185.225 54.6958 188.348 53.4492 192.087Z" fill="white"/>
<path opacity="0.5" d="M67.9022 186.729C66.7262 185.236 54.6958 188.36 53.4492 192.087L54.1313 193.775C58.73 191.086 63.7275 189.098 68.9489 187.881C68.5588 187.534 68.2079 187.148 67.9022 186.729V186.729Z" fill="#EA0029"/>
<g style="mix-blend-mode:multiply">
<g style="mix-blend-mode:multiply" opacity="0.5">
<path d="M76.9809 187.288C76.0166 185.327 74.3113 184.438 73.4529 185.076C72.9148 185.757 72.5156 186.531 72.2769 187.356C73.8389 187.187 75.4143 187.164 76.9809 187.288V187.288Z" fill="#EA0029"/>
</g>
</g>
<path d="M53.4492 192.087C53.4492 192.087 54.1666 193.809 55.3661 196.83C56.5656 199.851 63.0101 206.223 66.1618 206.588C69.3134 206.953 73.0884 195.849 73.6882 193.558C73.8881 192.805 74.088 191.597 74.088 191.597C74.088 191.597 78.0511 189.784 77.1338 187.596C76.2166 185.407 74.3585 184.404 73.4765 185.076C72.5945 185.749 72.4416 188.587 71.1245 188.61C69.8074 188.633 69.09 188.234 67.9258 186.729C66.7615 185.225 54.6958 188.348 53.4492 192.087Z" stroke="#263238" stroke-width="0.75" stroke-linecap="round" stroke-linejoin="round"/>
<path d="M57.7181 192.908C57.9298 193.604 57.8592 194.242 57.577 194.322C57.2947 194.402 56.8831 193.9 56.6714 193.182C56.4597 192.464 56.5303 191.848 56.8125 191.768C57.0948 191.688 57.5064 192.236 57.7181 192.908Z" fill="#263238" stroke="#263238" stroke-miterlimit="10"/>
<path d="M55.5308 190.97C57.1772 190.514 57.8828 191.711 58.0827 192.817L58.3885 194.128L59.4116 199.201L60.9639 198.563" stroke="#263238" stroke-width="0.5" stroke-linecap="round" stroke-linejoin="round"/>
<path d="M62.2339 191.358C62.5915 190.977 63.0367 190.684 63.5333 190.502C64.0298 190.32 64.5637 190.254 65.0916 190.309" stroke="#263238" stroke-width="0.5" stroke-linecap="round" stroke-linejoin="round"/>
<path d="M63.5982 188.2C62.9291 188.336 62.3151 188.657 61.8308 189.124C61.3464 189.592 61.0126 190.185 60.8699 190.833" stroke="#263238" stroke-width="0.5" stroke-linecap="round" stroke-linejoin="round"/>
<path d="M62.3633 200.204C62.3633 200.204 65.7737 199.543 66.0442 197.172" stroke="#263238" stroke-width="0.5" stroke-linecap="round" stroke-linejoin="round"/>
<path d="M91.3165 239.488L74.0999 234.837C74.0999 234.837 75.6169 206.337 78.2747 201.515C82.4142 194.025 91.9045 197.4 93.692 206.816C95.3619 215.708 91.3165 239.488 91.3165 239.488Z" fill="#EA0029" stroke="#263238" stroke-linecap="round" stroke-linejoin="round"/>
<path d="M74.5115 231.668C74.5115 231.668 83.9195 233.766 89.6466 235.59" stroke="#263238" stroke-width="0.5" stroke-linecap="round" stroke-linejoin="round"/>
<path d="M89.4114 196.533C89.4114 196.533 95.0091 196.955 98.6665 199.874" stroke="#EA0029" stroke-width="0.5" stroke-linecap="round" stroke-linejoin="round"/>
<path d="M188.054 269.436C188.054 269.436 162.982 278.009 160.689 280.346C158.396 282.683 158.631 291.803 164.04 296.238C169.45 300.672 208.011 290.618 235.576 287.688C263.142 284.758 323.659 280.449 348.355 279.286C373.051 278.123 384.282 281.281 386.445 273.814C388.609 266.347 388.339 258.367 383.635 256.748C378.931 255.129 293.224 241.826 188.054 269.436Z" fill="#263238" stroke="#263238" stroke-width="0.75" stroke-linecap="round" stroke-linejoin="round"/>
<path d="M158.901 285.328C158.901 285.328 160.077 295.212 166.345 296.728C172.613 298.244 247.101 284.564 291.001 283.048C334.901 281.532 373.321 280.392 373.321 280.392" stroke="white" stroke-width="0.5" stroke-linecap="round" stroke-linejoin="round"/>
<path d="M195.287 290.344C224.404 283.504 284.298 273.837 385.081 276.584" stroke="white" stroke-width="0.5" stroke-linecap="round" stroke-linejoin="round"/>
<path d="M171.414 296.363C171.414 296.363 178.105 294.79 188.278 292.1" stroke="white" stroke-width="0.5" stroke-linecap="round" stroke-linejoin="round"/>
<path d="M177.553 297.492C177.869 301.73 177.751 305.987 177.2 310.203" stroke="white" stroke-width="0.5" stroke-linecap="round" stroke-linejoin="round"/>
<path d="M176.482 115.194C176.482 115.194 170.873 121.567 170.438 127.278" stroke="#263238" stroke-width="0.75" stroke-linecap="round" stroke-linejoin="round"/>
<path d="M169.85 131.884C169.85 131.884 165.628 196.989 176.8 266.278" stroke="#263238" stroke-width="0.75" stroke-linecap="round" stroke-linejoin="round"/>
<path d="M171.179 207.112C171.179 207.112 162.065 210.19 161.947 214.18C161.641 224.908 162.806 247.799 165.216 250.022C167.627 252.245 175.118 246.363 175.118 246.363C175.118 246.363 185.702 247.252 186.878 244.949C188.054 242.646 183.644 210.236 182.986 207.409C182.327 204.582 171.179 207.112 171.179 207.112Z" fill="#EA0029" stroke="#263238" stroke-linecap="round" stroke-linejoin="round"/>
<path d="M361.55 222.548C363.922 223.672 366.499 224.33 369.135 224.486C366.218 213.861 362.914 202.028 359.503 190.218C356.422 190.013 352.447 190.013 352.53 191.358C352.588 193.661 358.574 220.884 361.55 222.548Z" fill="#EA0029" stroke="#263238" stroke-linecap="round" stroke-linejoin="round"/>
<path d="M169.873 210.464C169.873 210.464 170.273 230.984 171.837 238.964" stroke="#263238" stroke-width="0.75" stroke-linecap="round" stroke-linejoin="round"/>
<path d="M279.806 215.207C279.806 215.207 332.279 207.01 393.419 217.487" stroke="#263238" stroke-linecap="round" stroke-linejoin="round"/>
<path d="M439.554 247.343C443.164 248.392 446.716 249.498 450.138 250.683" stroke="#263238" stroke-linecap="round" stroke-linejoin="round"/>
<path d="M345.344 231.862C345.344 231.862 386.951 234.313 426.794 243.969" stroke="#263238" stroke-linecap="round" stroke-linejoin="round"/>
<path d="M218.712 325.787C252.971 320.711 287.777 320.109 322.2 323.997" stroke="#263238" stroke-linecap="round" stroke-linejoin="round"/>
<path d="M214.408 320.417C214.408 320.417 239.034 317.43 247.042 316.838" stroke="#263238" stroke-linecap="round" stroke-linejoin="round"/>
<path d="M379.331 99.0063C382.859 99.4965 386.387 100.146 389.585 100.887" stroke="#263238" stroke-linecap="round" stroke-linejoin="round"/>
<path d="M328.633 97.8778C343.123 96.8856 357.671 96.9808 372.145 98.1628" stroke="#263238" stroke-linecap="round" stroke-linejoin="round"/>
<path d="M138.897 235.977C138.897 235.977 174.036 219.846 224.875 215.366" stroke="#263238" stroke-linecap="round" stroke-linejoin="round"/>
<path d="M198.074 206.394C198.074 206.394 219.348 201.025 251.711 199.224" stroke="#263238" stroke-linecap="round" stroke-linejoin="round"/>
<path d="M138.321 320.292C142.592 327.706 149.483 333.375 157.725 336.252" stroke="#263238" stroke-linecap="round" stroke-linejoin="round"/>
<path d="M137.145 325.422C137.145 325.422 142.437 333.402 149.493 336.822" stroke="#263238" stroke-linecap="round" stroke-linejoin="round"/>
<path d="M310.605 296.922C310.605 296.922 314.133 312.882 328.245 319.722" stroke="#263238" stroke-linecap="round" stroke-linejoin="round"/>
<path d="M312.369 311.172C315.166 315.142 319.029 318.296 323.541 320.292" stroke="#263238" stroke-linecap="round" stroke-linejoin="round"/>
<path d="M79.7092 341.906C79.7092 341.906 83.2372 347.606 95.5852 347.606" stroke="#263238" stroke-linecap="round" stroke-linejoin="round"/>
<path d="M77.3574 345.326C81.8561 348.953 87.4012 351.143 93.2334 351.596" stroke="#263238" stroke-linecap="round" stroke-linejoin="round"/>
<path d="M236.329 331.259C205.096 332.906 174.093 337.402 143.731 344.688L144.46 345.748C144.46 345.748 170.332 340.425 218.148 351.825C265.964 363.225 269.116 372.345 321.636 372.345C374.156 372.345 425.124 360.192 425.124 360.192L418.75 356.772C371.592 337.426 306.959 327.429 236.329 331.259Z" fill="#EA0029"/>
<path opacity="0.5" d="M236.329 331.259C205.096 332.906 174.093 337.402 143.731 344.688L144.46 345.748C144.46 345.748 170.332 340.425 218.148 351.825C265.964 363.225 269.116 372.345 321.636 372.345C374.156 372.345 425.124 360.192 425.124 360.192L418.75 356.772C371.592 337.426 306.959 327.429 236.329 331.259Z" fill="white"/>
<path d="M121.269 357.342C121.269 357.342 183.009 348.222 236.517 382.992" stroke="#EA0029" stroke-opacity="0.1" stroke-linecap="round" stroke-linejoin="round"/>
<path d="M185.949 370.452C185.949 370.452 211.233 377.862 226.521 393.822" stroke="#EA0029" stroke-opacity="0.1" stroke-linecap="round" stroke-linejoin="round"/>
<path d="M335.301 341.382C335.301 341.382 371.169 344.802 403.509 363.612" stroke="#EA0029" stroke-opacity="0.1" stroke-linecap="round" stroke-linejoin="round"/>
<path d="M447.139 370.839C453.598 374.671 459.746 378.973 465.531 383.71" stroke="#EA0029" stroke-opacity="0.1" stroke-linecap="round" stroke-linejoin="round"/>
<path d="M26.3777 397.732C69.2429 362.392 146.694 336.172 236.329 331.258C318.143 326.755 391.937 340.96 439.777 366.598" stroke="#EA0029" stroke-opacity="0.1" stroke-linecap="round" stroke-linejoin="round"/>
<path d="M287.673 340.812C287.673 340.812 324.717 342.522 349.413 350.502" stroke="#EA0029" stroke-opacity="0.1" stroke-linecap="round" stroke-linejoin="round"/>
<path d="M119.717 70.1757C119.717 70.1757 118.541 54.4095 94.7268 53.8395C70.9128 53.2695 77.2867 69.6171 70.901 73.5615C64.5153 77.5059 62.7631 71.2815 56.3657 75.2487C49.9682 79.2159 52.8377 87.0819 47.6515 88.2105C42.4654 89.3391 35.4446 83.1375 29.059 87.0705C22.6733 91.0035 22.6615 94.3893 19.7568 94.3893C16.8521 94.3893 11.0426 92.1093 7.56168 94.3893C4.08072 96.6693 0 99.4281 0 99.4281H147C147 99.4281 148.74 94.3551 142.296 90.9807C135.851 87.6063 132.994 90.4107 130.677 87.5607C128.36 84.7107 137.145 77.5059 119.717 70.1757Z" fill="#EA0029" fill-opacity="0.3"/>
<path d="M207.058 9.83551C207.058 9.83551 206.353 0.350703 192.029 0.00870254C177.705 -0.333298 181.539 9.5049 177.693 11.8761C173.848 14.2473 172.801 10.5195 168.956 12.8907C165.11 15.2619 166.863 20.0043 163.711 20.6769C160.559 21.3495 156.373 17.6331 152.527 20.0043C148.682 22.3755 148.682 24.4047 146.929 24.4047C145.177 24.4047 141.684 23.0595 139.591 24.4047C137.498 25.7499 135.052 27.4599 135.052 27.4599H223.487C223.487 27.4599 224.533 24.4047 220.688 22.3755C216.842 20.3463 215.102 22.0335 213.703 20.3463C212.303 18.6591 217.548 14.2473 207.058 9.83551Z" fill="#EA0029" fill-opacity="0.3"/>
<path opacity="0.7" d="M119.717 70.1757C119.717 70.1757 118.541 54.4095 94.7268 53.8395C70.9128 53.2695 77.2867 69.6171 70.901 73.5615C64.5153 77.5059 62.7631 71.2815 56.3657 75.2487C49.9682 79.2159 52.8377 87.0819 47.6515 88.2105C42.4654 89.3391 35.4446 83.1375 29.059 87.0705C22.6733 91.0035 22.6615 94.3893 19.7568 94.3893C16.8521 94.3893 11.0426 92.1093 7.56168 94.3893C4.08072 96.6693 0 99.4281 0 99.4281H147C147 99.4281 148.74 94.3551 142.296 90.9807C135.851 87.6063 132.994 90.4107 130.677 87.5607C128.36 84.7107 137.145 77.5059 119.717 70.1757Z" fill="white"/>
<path opacity="0.8" d="M207.058 9.83551C207.058 9.83551 206.353 0.350703 192.029 0.00870254C177.705 -0.333298 181.539 9.5049 177.693 11.8761C173.848 14.2473 172.801 10.5195 168.956 12.8907C165.11 15.2619 166.863 20.0043 163.711 20.6769C160.559 21.3495 156.373 17.6331 152.527 20.0043C148.682 22.3755 148.682 24.4047 146.929 24.4047C145.177 24.4047 141.684 23.0595 139.591 24.4047C137.498 25.7499 135.052 27.4599 135.052 27.4599H223.487C223.487 27.4599 224.533 24.4047 220.688 22.3755C216.842 20.3463 215.102 22.0335 213.703 20.3463C212.303 18.6591 217.548 14.2473 207.058 9.83551Z" fill="white"/>
</svg>
